<svg width="208" height="133" viewBox="0 0 208 133" fill="none" xmlns="http://www.w3.org/2000/svg">
<g filter="url(#filter0_i)">
<path d="M17.9805 50.8633L18.9648 57.6133L20.4062 51.5312L30.5312 15.8125H36.2266L46.1055 51.5312L47.5117 57.7188L48.6016 50.8281L56.5469 15.8125H63.332L50.9219 67H44.7695L34.2227 29.6992L33.4141 25.7969L32.6055 29.6992L21.6719 67H15.5195L3.14453 15.8125H9.89453L17.9805 50.8633ZM84.4961 67.7031C79.3398 67.7031 75.1445 66.0156 71.9102 62.6406C68.6758 59.2422 67.0586 54.707 67.0586 49.0352V47.8398C67.0586 44.0664 67.7734 40.7031 69.2031 37.75C70.6562 34.7734 72.6719 32.4531 75.25 30.7891C77.8516 29.1016 80.6641 28.2578 83.6875 28.2578C88.6328 28.2578 92.4766 29.8867 95.2188 33.1445C97.9609 36.4023 99.332 41.0664 99.332 47.1367V49.8438H73.5625C73.6562 53.5938 74.7461 56.6289 76.832 58.9492C78.9414 61.2461 81.6133 62.3945 84.8477 62.3945C87.1445 62.3945 89.0898 61.9258 90.6836 60.9883C92.2773 60.0508 93.6719 58.8086 94.8672 57.2617L98.8398 60.3555C95.6523 65.2539 90.8711 67.7031 84.4961 67.7031ZM83.6875 33.6016C81.0625 33.6016 78.8594 34.5625 77.0781 36.4844C75.2969 38.3828 74.1953 41.0547 73.7734 44.5H92.8281V44.0078C92.6406 40.7031 91.75 38.1484 90.1562 36.3438C88.5625 34.5156 86.4062 33.6016 83.6875 33.6016Z" fill="#AAAAAA"/>
<path d="M17.9805 50.8633L19.9595 50.5747L19.9477 50.4936L19.9293 50.4137L17.9805 50.8633ZM18.9648 57.6133L16.9858 57.9019L20.9109 58.0745L18.9648 57.6133ZM20.4062 51.5312L18.4821 50.9858L18.4702 51.0277L18.4602 51.07L20.4062 51.5312ZM30.5312 15.8125V13.8125H29.0194L28.6071 15.2671L30.5312 15.8125ZM36.2266 15.8125L38.1542 15.2794L37.7485 13.8125H36.2266V15.8125ZM46.1055 51.5312L48.0557 51.088L48.0455 51.0428L48.0331 50.9981L46.1055 51.5312ZM47.5117 57.7188L45.5615 58.162L49.4872 58.0312L47.5117 57.7188ZM48.6016 50.8281L46.6511 50.3856L46.6365 50.4502L46.6261 50.5157L48.6016 50.8281ZM56.5469 15.8125V13.8125H54.9498L54.5965 15.3699L56.5469 15.8125ZM63.332 15.8125L65.2757 16.2837L65.8749 13.8125H63.332V15.8125ZM50.9219 67V69H52.4949L52.8656 67.4712L50.9219 67ZM44.7695 67L42.845 67.5442L43.2566 69H44.7695V67ZM34.2227 29.6992L32.2643 30.105L32.2787 30.1748L32.2981 30.2434L34.2227 29.6992ZM33.4141 25.7969L35.3725 25.3911H31.4557L33.4141 25.7969ZM32.6055 29.6992L34.5247 30.2618L34.5475 30.1842L34.5639 30.105L32.6055 29.6992ZM21.6719 67V69H23.1698L23.5911 67.5626L21.6719 67ZM15.5195 67L13.5755 67.47L13.9454 69H15.5195V67ZM3.14453 15.8125V13.8125H0.603398L1.20053 16.2825L3.14453 15.8125ZM9.89453 15.8125L11.8433 15.3629L11.4857 13.8125H9.89453V15.8125ZM16.0014 51.1519L16.9858 57.9019L20.9439 57.3247L19.9595 50.5747L16.0014 51.1519ZM20.9109 58.0745L22.3523 51.9925L18.4602 51.07L17.0187 57.1521L20.9109 58.0745ZM22.3304 52.0767L32.4554 16.3579L28.6071 15.2671L18.4821 50.9858L22.3304 52.0767ZM30.5312 17.8125H36.2266V13.8125H30.5312V17.8125ZM34.2989 16.3456L44.1778 52.0644L48.0331 50.9981L38.1542 15.2794L34.2989 16.3456ZM44.1552 51.9745L45.5615 58.162L49.462 57.2755L48.0557 51.088L44.1552 51.9745ZM49.4872 58.0312L50.577 51.1406L46.6261 50.5157L45.5363 57.4063L49.4872 58.0312ZM50.552 51.2707L58.4973 16.2551L54.5965 15.3699L46.6511 50.3856L50.552 51.2707ZM56.5469 17.8125H63.332V13.8125H56.5469V17.8125ZM61.3883 15.3413L48.9782 66.5288L52.8656 67.4712L65.2757 16.2837L61.3883 15.3413ZM50.9219 65H44.7695V69H50.9219V65ZM46.6941 66.4558L36.1472 29.155L32.2981 30.2434L42.845 67.5442L46.6941 66.4558ZM36.1811 29.2934L35.3725 25.3911L31.4557 26.2027L32.2643 30.105L36.1811 29.2934ZM31.4557 25.3911L30.6471 29.2934L34.5639 30.105L35.3725 26.2027L31.4557 25.3911ZM30.6862 29.1366L19.7526 66.4374L23.5911 67.5626L34.5247 30.2618L30.6862 29.1366ZM21.6719 65H15.5195V69H21.6719V65ZM17.4635 66.53L5.08853 15.3425L1.20053 16.2825L13.5755 67.47L17.4635 66.53ZM3.14453 17.8125H9.89453V13.8125H3.14453V17.8125ZM7.94572 16.2621L16.0317 51.3129L19.9293 50.4137L11.8433 15.3629L7.94572 16.2621ZM71.9102 62.6406L70.4614 64.0194L70.4662 64.0244L71.9102 62.6406ZM69.2031 37.75L67.4059 36.8726L67.403 36.8785L69.2031 37.75ZM75.25 30.7891L76.3346 32.4694L76.3384 32.467L75.25 30.7891ZM99.332 49.8438V51.8438H101.332V49.8438H99.332ZM73.5625 49.8438V47.8438H71.5119L71.5631 49.8937L73.5625 49.8438ZM76.832 58.9492L75.3447 60.2863L75.3518 60.2942L75.359 60.302L76.832 58.9492ZM94.8672 57.2617L96.096 55.6838L94.5121 54.4503L93.2846 56.0388L94.8672 57.2617ZM98.8398 60.3555L100.516 61.4463L101.518 59.9064L100.069 58.7775L98.8398 60.3555ZM77.0781 36.4844L78.5367 37.8529L78.545 37.8439L77.0781 36.4844ZM73.7734 44.5L71.7883 44.2569L71.5136 46.5H73.7734V44.5ZM92.8281 44.5V46.5H94.8281V44.5H92.8281ZM92.8281 44.0078H94.8281V43.9511L94.8249 43.8945L92.8281 44.0078ZM90.1562 36.3438L88.6487 37.658L88.6571 37.6676L90.1562 36.3438ZM84.4961 65.7031C79.8229 65.7031 76.1704 64.1955 73.3541 61.2568L70.4662 64.0244C74.1187 67.8357 78.8567 69.7031 84.4961 69.7031V65.7031ZM73.3589 61.2618C70.5497 58.3101 69.0586 54.3074 69.0586 49.0352H65.0586C65.0586 55.1067 66.8019 60.1743 70.4614 64.0194L73.3589 61.2618ZM69.0586 49.0352V47.8398H65.0586V49.0352H69.0586ZM69.0586 47.8398C69.0586 44.3229 69.7235 41.2649 71.0033 38.6215L67.403 36.8785C65.8233 40.1414 65.0586 43.8099 65.0586 47.8398H69.0586ZM71.0004 38.6274C72.3068 35.9515 74.0871 33.9201 76.3346 32.4694L74.1654 29.1087C71.2567 30.9861 69.0057 33.5954 67.4059 36.8726L71.0004 38.6274ZM76.3384 32.467C78.6247 30.984 81.0607 30.2578 83.6875 30.2578V26.2578C80.2674 26.2578 77.0785 27.2191 74.1616 29.1111L76.3384 32.467ZM83.6875 30.2578C88.1486 30.2578 91.3898 31.7013 93.6886 34.4325L96.7489 31.8566C93.5634 28.0721 89.117 26.2578 83.6875 26.2578V30.2578ZM93.6886 34.4325C96.0208 37.2032 97.332 41.3405 97.332 47.1367H101.332C101.332 40.7924 99.9011 35.6015 96.7489 31.8566L93.6886 34.4325ZM97.332 47.1367V49.8438H101.332V47.1367H97.332ZM99.332 47.8438H73.5625V51.8438H99.332V47.8438ZM71.5631 49.8937C71.6663 54.0194 72.8788 57.5433 75.3447 60.2863L78.3194 57.6121C76.6134 55.7145 75.6462 53.1681 75.5619 49.7938L71.5631 49.8937ZM75.359 60.302C77.8628 63.0284 81.0769 64.3945 84.8477 64.3945V60.3945C82.1497 60.3945 80.0201 59.4638 78.3051 57.5964L75.359 60.302ZM84.8477 64.3945C87.4155 64.3945 89.7303 63.8694 91.6976 62.7121L89.6696 59.2644C88.4494 59.9821 86.8736 60.3945 84.8477 60.3945V64.3945ZM91.6976 62.7121C93.5235 61.6381 95.1076 60.2215 96.4498 58.4846L93.2846 56.0388C92.2361 57.3957 91.0312 58.4634 89.6696 59.2644L91.6976 62.7121ZM93.6383 58.8397L97.611 61.9334L100.069 58.7775L96.096 55.6838L93.6383 58.8397ZM97.1635 59.2646C94.3832 63.5374 90.2675 65.7031 84.4961 65.7031V69.7031C91.4747 69.7031 96.9215 66.9704 100.516 61.4463L97.1635 59.2646ZM83.6875 31.6016C80.5068 31.6016 77.7718 32.7938 75.6113 35.1248L78.545 37.8439C79.947 36.3312 81.6182 35.6016 83.6875 35.6016V31.6016ZM75.6196 35.1159C73.4646 37.4126 72.2447 40.5292 71.7883 44.2569L75.7586 44.7431C76.1459 41.5802 77.1291 39.353 78.5366 37.8529L75.6196 35.1159ZM73.7734 46.5H92.8281V42.5H73.7734V46.5ZM94.8281 44.5V44.0078H90.8281V44.5H94.8281ZM94.8249 43.8945C94.6214 40.3078 93.64 37.2672 91.6554 35.0199L88.6571 37.6676C89.86 39.0297 90.6598 41.0985 90.8313 44.1211L94.8249 43.8945ZM91.6638 35.0295C89.6417 32.71 86.9061 31.6016 83.6875 31.6016V35.6016C85.9064 35.6016 87.4833 36.3212 88.6487 37.658L91.6638 35.0295Z" fill="#AAAAAA"/>
<path d="M20.5195 78.9863C15.6953 77.5996 12.1797 75.9004 9.97266 73.8887C7.78516 71.8574 6.69141 69.3574 6.69141 66.3887C6.69141 63.0293 8.0293 60.2559 10.7051 58.0684C13.4004 55.8613 16.8965 54.7578 21.1934 54.7578C24.123 54.7578 26.7305 55.3242 29.0156 56.457C31.3203 57.5898 33.0977 59.1523 34.3477 61.1445C35.6172 63.1367 36.252 65.3145 36.252 67.6777H30.5977C30.5977 65.0996 29.7773 63.0781 28.1367 61.6133C26.4961 60.1289 24.1816 59.3867 21.1934 59.3867C18.4199 59.3867 16.252 60.002 14.6895 61.2324C13.1465 62.4434 12.375 64.1328 12.375 66.3008C12.375 68.0391 13.1074 69.5137 14.5723 70.7246C16.0566 71.916 18.5664 73.0098 22.1016 74.0059C25.6562 75.002 28.4297 76.1055 30.4219 77.3164C32.4336 78.5078 33.918 79.9043 34.875 81.5059C35.8516 83.1074 36.3398 84.9922 36.3398 87.1602C36.3398 90.6172 34.9922 93.3906 32.2969 95.4805C29.6016 97.5508 25.998 98.5859 21.4863 98.5859C18.5566 98.5859 15.8223 98.0293 13.2832 96.916C10.7441 95.7832 8.78125 94.2402 7.39453 92.2871C6.02734 90.334 5.34375 88.1172 5.34375 85.6367H10.998C10.998 88.2148 11.9453 90.2559 13.8398 91.7598C15.7539 93.2441 18.3027 93.9863 21.4863 93.9863C24.4551 93.9863 26.7305 93.3809 28.3125 92.1699C29.8945 90.959 30.6855 89.3086 30.6855 87.2188C30.6855 85.1289 29.9531 83.5176 28.4883 82.3848C27.0234 81.2324 24.3672 80.0996 20.5195 78.9863ZM55.8809 98.5859C51.584 98.5859 48.0879 97.1797 45.3926 94.3672C42.6973 91.5352 41.3496 87.7559 41.3496 83.0293V82.0332C41.3496 78.8887 41.9453 76.0859 43.1367 73.625C44.3477 71.1445 46.0273 69.2109 48.1758 67.8242C50.3438 66.418 52.6875 65.7148 55.207 65.7148C59.3281 65.7148 62.5312 67.0723 64.8164 69.7871C67.1016 72.502 68.2441 76.3887 68.2441 81.4473V83.7031H46.7695C46.8477 86.8281 47.7559 89.3574 49.4941 91.291C51.252 93.2051 53.4785 94.1621 56.1738 94.1621C58.0879 94.1621 59.709 93.7715 61.0371 92.9902C62.3652 92.209 63.5273 91.1738 64.5234 89.8848L67.834 92.4629C65.1777 96.5449 61.1934 98.5859 55.8809 98.5859ZM55.207 70.168C53.0195 70.168 51.1836 70.9688 49.6992 72.5703C48.2148 74.1523 47.2969 76.3789 46.9453 79.25H62.8242V78.8398C62.668 76.0859 61.9258 73.957 60.5977 72.4531C59.2695 70.9297 57.4727 70.168 55.207 70.168ZM79.6699 66.3008L79.8457 70.2852C82.2676 67.2383 85.4316 65.7148 89.3379 65.7148C96.0371 65.7148 99.416 69.4941 99.4746 77.0527V98H94.0547V77.0234C94.0352 74.7383 93.5078 73.0488 92.4727 71.9551C91.457 70.8613 89.8652 70.3145 87.6973 70.3145C85.9395 70.3145 84.3965 70.7832 83.0684 71.7207C81.7402 72.6582 80.7051 73.8887 79.9629 75.4121V98H74.543V66.3008H79.6699ZM126.105 89.5918C126.105 88.127 125.549 86.9941 124.436 86.1934C123.342 85.373 121.418 84.6699 118.664 84.084C115.93 83.498 113.752 82.7949 112.131 81.9746C110.529 81.1543 109.338 80.1777 108.557 79.0449C107.795 77.9121 107.414 76.5645 107.414 75.002C107.414 72.4043 108.508 70.207 110.695 68.4102C112.902 66.6133 115.715 65.7148 119.133 65.7148C122.727 65.7148 125.637 66.6426 127.863 68.498C130.109 70.3535 131.232 72.7266 131.232 75.6172H125.783C125.783 74.1328 125.148 72.8535 123.879 71.7793C122.629 70.7051 121.047 70.168 119.133 70.168C117.16 70.168 115.617 70.5977 114.504 71.457C113.391 72.3164 112.834 73.4395 112.834 74.8262C112.834 76.1348 113.352 77.1211 114.387 77.7852C115.422 78.4492 117.287 79.084 119.982 79.6895C122.697 80.2949 124.895 81.0176 126.574 81.8574C128.254 82.6973 129.494 83.7129 130.295 84.9043C131.115 86.0762 131.525 87.5117 131.525 89.2109C131.525 92.043 130.393 94.3184 128.127 96.0371C125.861 97.7363 122.922 98.5859 119.309 98.5859C116.77 98.5859 114.523 98.1367 112.57 97.2383C110.617 96.3398 109.084 95.0898 107.971 93.4883C106.877 91.8672 106.33 90.1191 106.33 88.2441H111.75C111.848 90.0605 112.57 91.5059 113.918 92.5801C115.285 93.6348 117.082 94.1621 119.309 94.1621C121.359 94.1621 123 93.752 124.23 92.9316C125.48 92.0918 126.105 90.9785 126.105 89.5918ZM151.74 98.5859C147.443 98.5859 143.947 97.1797 141.252 94.3672C138.557 91.5352 137.209 87.7559 137.209 83.0293V82.0332C137.209 78.8887 137.805 76.0859 138.996 73.625C140.207 71.1445 141.887 69.2109 144.035 67.8242C146.203 66.418 148.547 65.7148 151.066 65.7148C155.188 65.7148 158.391 67.0723 160.676 69.7871C162.961 72.502 164.104 76.3887 164.104 81.4473V83.7031H142.629C142.707 86.8281 143.615 89.3574 145.354 91.291C147.111 93.2051 149.338 94.1621 152.033 94.1621C153.947 94.1621 155.568 93.7715 156.896 92.9902C158.225 92.209 159.387 91.1738 160.383 89.8848L163.693 92.4629C161.037 96.5449 157.053 98.5859 151.74 98.5859ZM151.066 70.168C148.879 70.168 147.043 70.9688 145.559 72.5703C144.074 74.1523 143.156 76.3789 142.805 79.25H158.684V78.8398C158.527 76.0859 157.785 73.957 156.457 72.4531C155.129 70.9297 153.332 70.168 151.066 70.168Z" fill="#3D2EE8"/>
<path d="M20.5195 78.9863L21.0754 77.0651L21.0721 77.0642L20.5195 78.9863ZM9.97266 73.8887L8.61175 75.3543L8.61853 75.3605L8.62536 75.3668L9.97266 73.8887ZM10.7051 58.0684L11.9709 59.6168L11.9722 59.6158L10.7051 58.0684ZM29.0156 56.457L28.1273 58.2489L28.1334 58.2519L29.0156 56.457ZM34.3477 61.1445L32.6535 62.2075L32.661 62.2194L34.3477 61.1445ZM36.252 67.6777V69.6777H38.252V67.6777H36.252ZM30.5977 67.6777H28.5977V69.6777H30.5977V67.6777ZM28.1367 61.6133L26.7949 63.0964L26.8047 63.1052L28.1367 61.6133ZM14.6895 61.2324L15.9242 62.8058L15.9268 62.8037L14.6895 61.2324ZM14.5723 70.7246L13.298 72.2661L13.3091 72.2753L13.3204 72.2843L14.5723 70.7246ZM22.1016 74.0059L21.5591 75.9309L21.5619 75.9317L22.1016 74.0059ZM30.4219 77.3164L29.383 79.0255L29.3929 79.0314L29.4027 79.0373L30.4219 77.3164ZM34.875 81.5059L33.1582 82.5318L33.1628 82.5394L33.1674 82.5471L34.875 81.5059ZM32.2969 95.4805L33.5152 97.0666L33.5224 97.061L32.2969 95.4805ZM13.2832 96.916L12.4683 98.7425L12.4801 98.7477L13.2832 96.916ZM7.39453 92.2871L5.75603 93.4341L5.76377 93.445L7.39453 92.2871ZM5.34375 85.6367V83.6367H3.34375V85.6367H5.34375ZM10.998 85.6367H12.998V83.6367H10.998V85.6367ZM13.8398 91.7598L12.5964 93.3262L12.6052 93.3333L12.6142 93.3402L13.8398 91.7598ZM28.4883 82.3848L27.2517 83.9567L27.2582 83.9618L27.2648 83.9669L28.4883 82.3848ZM21.0721 77.0642C16.3676 75.7119 13.195 74.1197 11.32 72.4106L8.62536 75.3668C11.1644 77.6811 15.023 79.4873 19.967 80.9085L21.0721 77.0642ZM11.3336 72.4231C9.55103 70.7679 8.69141 68.7978 8.69141 66.3887H4.69141C4.69141 69.917 6.01928 72.947 8.61175 75.3543L11.3336 72.4231ZM8.69141 66.3887C8.69141 63.6492 9.7443 61.4371 11.9709 59.6168L9.43922 56.5199C6.31429 59.0746 4.69141 62.4094 4.69141 66.3887H8.69141ZM11.9722 59.6158C14.2326 57.7648 17.2473 56.7578 21.1934 56.7578V52.7578C16.5457 52.7578 12.5682 53.9578 9.43799 56.5209L11.9722 59.6158ZM21.1934 56.7578C23.8608 56.7578 26.1567 57.272 28.1273 58.2489L29.9039 54.6651C27.3043 53.3764 24.3853 52.7578 21.1934 52.7578V56.7578ZM28.1334 58.2519C30.1365 59.2365 31.6189 60.5586 32.6535 62.2075L36.0418 60.0815C34.5764 57.7461 32.5042 55.9432 29.8979 54.6621L28.1334 58.2519ZM32.661 62.2194C33.7258 63.8903 34.252 65.6951 34.252 67.6777H38.252C38.252 64.9338 37.5086 62.3832 36.0343 60.0697L32.661 62.2194ZM36.252 65.6777H30.5977V69.6777H36.252V65.6777ZM32.5977 67.6777C32.5977 64.6376 31.6086 62.032 29.4688 60.1214L26.8047 63.1052C27.9461 64.1243 28.5977 65.5616 28.5977 67.6777H32.5977ZM29.4785 60.1302C27.3577 58.2113 24.5014 57.3867 21.1934 57.3867V61.3867C23.8619 61.3867 25.6345 62.0465 26.7949 63.0964L29.4785 60.1302ZM21.1934 57.3867C18.1451 57.3867 15.4832 58.0616 13.4521 59.6611L15.9268 62.8037C17.0207 61.9423 18.6947 61.3867 21.1934 61.3867V57.3867ZM13.4547 59.6591C11.3733 61.2926 10.375 63.5926 10.375 66.3008H14.375C14.375 64.673 14.9197 63.5941 15.9242 62.8057L13.4547 59.6591ZM10.375 66.3008C10.375 68.6959 11.4223 70.7155 13.298 72.2661L15.8466 69.1831C14.7926 68.3118 14.375 67.3823 14.375 66.3008H10.375ZM13.3204 72.2843C15.1294 73.7364 17.961 74.9171 21.5591 75.9309L22.644 72.0808C19.1718 71.1025 16.9838 70.0957 15.8242 69.1649L13.3204 72.2843ZM21.5619 75.9317C25.0305 76.9037 27.6099 77.9476 29.383 79.0255L31.4607 75.6074C29.2495 74.2633 26.282 73.1003 22.6412 72.08L21.5619 75.9317ZM29.4027 79.0373C31.1989 80.101 32.4101 81.28 33.1582 82.5318L36.5918 80.4799C35.4258 78.5286 33.6683 76.9146 31.441 75.5956L29.4027 79.0373ZM33.1674 82.5471C33.9245 83.7888 34.3398 85.3013 34.3398 87.1602H38.3398C38.3398 84.6831 37.7786 82.4261 36.5826 80.4646L33.1674 82.5471ZM34.3398 87.1602C34.3398 90.0088 33.2704 92.1949 31.0714 93.8999L33.5224 97.061C36.714 94.5863 38.3398 91.2256 38.3398 87.1602H34.3398ZM31.0786 93.8944C28.8318 95.6201 25.7014 96.5859 21.4863 96.5859V100.586C26.2947 100.586 30.3713 99.4814 33.5152 97.0666L31.0786 93.8944ZM21.4863 96.5859C18.8171 96.5859 16.358 96.0804 14.0863 95.0843L12.4801 98.7477C15.2866 99.9782 18.2961 100.586 21.4863 100.586V96.5859ZM14.0981 95.0896C11.8327 94.0788 10.1735 92.7464 9.0253 91.1293L5.76377 93.445C7.38904 95.7341 9.6556 97.4876 12.4683 98.7425L14.0981 95.0896ZM9.033 91.1402C7.91104 89.5374 7.34375 87.7245 7.34375 85.6367H3.34375C3.34375 88.5099 4.14365 91.1306 5.75607 93.434L9.033 91.1402ZM5.34375 87.6367H10.998V83.6367H5.34375V87.6367ZM8.99805 85.6367C8.99805 88.7788 10.1888 91.415 12.5964 93.3262L15.0833 90.1933C13.7019 89.0967 12.998 87.6509 12.998 85.6367H8.99805ZM12.6142 93.3402C14.9754 95.1713 17.9987 95.9863 21.4863 95.9863V91.9863C18.6067 91.9863 16.5324 91.317 15.0655 90.1793L12.6142 93.3402ZM21.4863 95.9863C24.6888 95.9863 27.463 95.3388 29.5281 93.7581L27.0969 90.5818C25.9979 91.4229 24.2214 91.9863 21.4863 91.9863V95.9863ZM29.5281 93.7581C31.6321 92.1476 32.6855 89.8957 32.6855 87.2188H28.6855C28.6855 88.7215 28.157 89.7703 27.0969 90.5818L29.5281 93.7581ZM32.6855 87.2188C32.6855 84.6005 31.7339 82.3664 29.7118 80.8027L27.2648 83.9669C28.1723 84.6687 28.6855 85.6574 28.6855 87.2188H32.6855ZM29.7248 80.8129C27.9338 79.4039 24.9515 78.1866 21.0754 77.0651L19.9637 80.9075C23.7829 82.0126 26.113 83.0609 27.2517 83.9567L29.7248 80.8129ZM45.3926 94.3672L43.9438 95.746L43.9486 95.751L45.3926 94.3672ZM43.1367 73.625L41.3394 72.7476L41.3366 72.7535L43.1367 73.625ZM48.1758 67.8242L49.2604 69.5046L49.2642 69.5021L48.1758 67.8242ZM64.8164 69.7871L63.2863 71.075L64.8164 69.7871ZM68.2441 83.7031V85.7031H70.2441V83.7031H68.2441ZM46.7695 83.7031V81.7031H44.7189L44.7702 83.7531L46.7695 83.7031ZM49.4941 91.291L48.0068 92.6281L48.0139 92.636L48.0211 92.6438L49.4941 91.291ZM64.5234 89.8848L65.7523 88.3068L64.1684 87.0733L62.9409 88.6619L64.5234 89.8848ZM67.834 92.4629L69.5103 93.5537L70.5124 92.0138L69.0628 90.8849L67.834 92.4629ZM49.6992 72.5703L51.1578 73.9388L51.1661 73.9298L49.6992 72.5703ZM46.9453 79.25L44.9601 79.0069L44.6855 81.25H46.9453V79.25ZM62.8242 79.25V81.25H64.8242V79.25H62.8242ZM62.8242 78.8398H64.8242V78.7832L64.821 78.7266L62.8242 78.8398ZM60.5977 72.4531L59.0901 73.7674L59.0985 73.777L60.5977 72.4531ZM55.8809 96.5859C52.0671 96.5859 49.1137 95.3596 46.8366 92.9834L43.9486 95.751C47.062 98.9998 51.1009 100.586 55.8809 100.586V96.5859ZM46.8413 92.9884C44.5712 90.6031 43.3496 87.3562 43.3496 83.0293H39.3496C39.3496 88.1555 40.8233 92.4672 43.9438 95.746L46.8413 92.9884ZM43.3496 83.0293V82.0332H39.3496V83.0293H43.3496ZM43.3496 82.0332C43.3496 79.1452 43.8954 76.6477 44.9369 74.4965L41.3366 72.7535C39.9952 75.5242 39.3496 78.6321 39.3496 82.0332H43.3496ZM44.934 74.5024C45.9982 72.3226 47.4425 70.6779 49.2604 69.5046L47.0912 66.1438C44.6122 67.7439 42.6971 69.9665 41.3395 72.7476L44.934 74.5024ZM49.2642 69.5021C51.1168 68.3004 53.0841 67.7148 55.207 67.7148V63.7148C52.2909 63.7148 49.5707 64.5355 47.0874 66.1463L49.2642 69.5021ZM55.207 67.7148C58.8439 67.7148 61.4445 68.8869 63.2863 71.075L66.3465 68.4992C63.618 65.2577 59.8123 63.7148 55.207 63.7148V67.7148ZM63.2863 71.075C65.1614 73.3028 66.2441 76.6627 66.2441 81.4473H70.2441C70.2441 76.1146 69.0417 71.7011 66.3465 68.4992L63.2863 71.075ZM66.2441 81.4473V83.7031H70.2441V81.4473H66.2441ZM68.2441 81.7031H46.7695V85.7031H68.2441V81.7031ZM44.7702 83.7531C44.8577 87.2537 45.8885 90.2718 48.0068 92.6281L50.9815 89.9539C49.6232 88.443 48.8376 86.4025 48.7689 83.6531L44.7702 83.7531ZM48.0211 92.6438C50.1733 94.9874 52.9421 96.1621 56.1738 96.1621V92.1621C54.0149 92.1621 52.3306 91.4228 50.9672 89.9382L48.0211 92.6438ZM56.1738 96.1621C58.3588 96.1621 60.3494 95.7151 62.0511 94.7141L60.0231 91.2664C59.0686 91.8278 57.817 92.1621 56.1738 92.1621V96.1621ZM62.0511 94.7141C63.6114 93.7963 64.9631 92.5867 66.106 91.1077L62.9409 88.6619C62.0916 89.7609 61.1191 90.6216 60.0231 91.2664L62.0511 94.7141ZM63.2946 91.4627L66.6051 94.0408L69.0628 90.8849L65.7523 88.3068L63.2946 91.4627ZM66.1576 91.3721C63.9085 94.8284 60.5898 96.5859 55.8809 96.5859V100.586C61.797 100.586 66.4469 98.2614 69.5103 93.5537L66.1576 91.3721ZM55.207 68.168C52.4639 68.168 50.096 69.2 48.2324 71.2108L51.1661 73.9298C52.2712 72.7375 53.5752 72.168 55.207 72.168V68.168ZM48.2407 71.2018C46.3826 73.1822 45.3463 75.8534 44.9601 79.0069L48.9305 79.4931C49.2475 76.9044 50.0471 75.1225 51.1577 73.9388L48.2407 71.2018ZM46.9453 81.25H62.8242V77.25H46.9453V81.25ZM64.8242 79.25V78.8398H60.8242V79.25H64.8242ZM64.821 78.7266C64.6488 75.6906 63.8158 73.0758 62.0968 71.1292L59.0985 73.777C60.0358 74.8383 60.6872 76.4813 60.8274 78.9531L64.821 78.7266ZM62.1052 71.1389C60.3487 69.1241 57.9725 68.168 55.207 68.168V72.168C56.9728 72.168 58.1903 72.7353 59.0901 73.7674L62.1052 71.1389ZM79.6699 66.3008L81.668 66.2126L81.5836 64.3008H79.6699V66.3008ZM79.8457 70.2852L77.8476 70.3733L78.0834 75.7165L81.4113 71.5296L79.8457 70.2852ZM99.4746 77.0527H101.475V77.045L101.475 77.0372L99.4746 77.0527ZM99.4746 98V100H101.475V98H99.4746ZM94.0547 98H92.0547V100H94.0547V98ZM94.0547 77.0234H96.0547V77.0149L96.0546 77.0063L94.0547 77.0234ZM92.4727 71.9551L91.0071 73.316L91.0135 73.3229L91.0201 73.3298L92.4727 71.9551ZM79.9629 75.4121L78.1649 74.5362L77.9629 74.9508V75.4121H79.9629ZM79.9629 98V100H81.9629V98H79.9629ZM74.543 98H72.543V100H74.543V98ZM74.543 66.3008V64.3008H72.543V66.3008H74.543ZM77.6719 66.3889L77.8476 70.3733L81.8438 70.197L81.668 66.2126L77.6719 66.3889ZM81.4113 71.5296C83.4522 68.9621 86.0388 67.7148 89.3379 67.7148V63.7148C84.8245 63.7148 81.083 65.5144 78.2801 69.0407L81.4113 71.5296ZM89.3379 67.7148C92.3113 67.7148 94.2075 68.5424 95.4055 69.8823C96.6436 71.2672 97.4473 73.5431 97.4747 77.0682L101.475 77.0372C101.443 73.0037 100.528 69.6107 98.3875 67.2163C96.2065 64.7769 93.0637 63.7148 89.3379 63.7148V67.7148ZM97.4746 77.0527V98H101.475V77.0527H97.4746ZM99.4746 96H94.0547V100H99.4746V96ZM96.0547 98V77.0234H92.0547V98H96.0547ZM96.0546 77.0063C96.0329 74.4703 95.4503 72.1917 93.9252 70.5803L91.0201 73.3298C91.5653 73.906 92.0374 75.0063 92.0548 77.0405L96.0546 77.0063ZM93.9382 70.5942C92.4001 68.9377 90.1666 68.3145 87.6973 68.3145V72.3145C89.5639 72.3145 90.514 72.785 91.0071 73.316L93.9382 70.5942ZM87.6973 68.3145C85.5618 68.3145 83.6083 68.8915 81.915 70.0868L84.2217 73.3546C85.1846 72.6749 86.3171 72.3145 87.6973 72.3145V68.3145ZM81.915 70.0868C80.2997 71.227 79.0482 72.7231 78.1649 74.5362L81.7609 76.288C82.362 75.0542 83.1808 74.0894 84.2217 73.3546L81.915 70.0868ZM77.9629 75.4121V98H81.9629V75.4121H77.9629ZM79.9629 96H74.543V100H79.9629V96ZM76.543 98V66.3008H72.543V98H76.543ZM74.543 68.3008H79.6699V64.3008H74.543V68.3008ZM124.436 86.1934L123.236 87.7934L123.251 87.8053L123.268 87.817L124.436 86.1934ZM118.664 84.084L118.245 86.0396L118.248 86.0402L118.664 84.084ZM112.131 81.9746L111.219 83.7547L111.228 83.7591L112.131 81.9746ZM108.557 79.0449L106.897 80.1609L106.904 80.1707L106.91 80.1804L108.557 79.0449ZM110.695 68.4102L109.433 66.8592L109.426 66.8647L110.695 68.4102ZM127.863 68.498L126.583 70.0345L126.59 70.04L127.863 68.498ZM131.232 75.6172V77.6172H133.232V75.6172H131.232ZM125.783 75.6172H123.783V77.6172H125.783V75.6172ZM123.879 71.7793L122.575 73.2961L122.581 73.3011L122.587 73.3061L123.879 71.7793ZM119.982 79.6895L119.544 81.6408L119.547 81.6415L119.982 79.6895ZM126.574 81.8574L125.68 83.6463L126.574 81.8574ZM130.295 84.9043L128.635 86.02L128.646 86.0357L128.656 86.0512L130.295 84.9043ZM128.127 96.0371L129.327 97.6371L129.336 97.6305L128.127 96.0371ZM107.971 93.4883L106.313 94.6069L106.321 94.6184L106.328 94.6298L107.971 93.4883ZM106.33 88.2441V86.2441H104.33V88.2441H106.33ZM111.75 88.2441L113.747 88.1368L113.645 86.2441H111.75V88.2441ZM113.918 92.5801L112.671 94.144L112.684 94.1539L112.696 94.1636L113.918 92.5801ZM124.23 92.9316L125.34 94.5958L125.346 94.5917L124.23 92.9316ZM128.105 89.5918C128.105 87.5348 127.28 85.7754 125.603 84.5698L123.268 87.817C123.818 88.2129 124.105 88.7191 124.105 89.5918H128.105ZM125.636 84.5934C124.172 83.4957 121.88 82.7234 119.08 82.1278L118.248 86.0402C120.956 86.6164 122.512 87.2504 123.236 87.7934L125.636 84.5934ZM119.083 82.1284C116.437 81.5613 114.443 80.903 113.034 80.1901L111.228 83.7591C113.061 84.6868 115.423 85.4348 118.245 86.0396L119.083 82.1284ZM113.043 80.1945C111.648 79.4801 110.748 78.699 110.203 77.9095L106.91 80.1804C107.928 81.6565 109.411 82.8285 111.219 83.7547L113.043 80.1945ZM110.216 77.9289C109.707 77.172 109.414 76.2261 109.414 75.002H105.414C105.414 76.9028 105.883 78.6522 106.897 80.1609L110.216 77.9289ZM109.414 75.002C109.414 73.0614 110.193 71.4114 111.965 69.9556L109.426 66.8647C106.823 69.0026 105.414 71.7472 105.414 75.002H109.414ZM111.958 69.9611C113.74 68.51 116.079 67.7148 119.133 67.7148V63.7148C115.351 63.7148 112.064 64.7165 109.433 66.8592L111.958 69.9611ZM119.133 67.7148C122.374 67.7148 124.796 68.5451 126.583 70.0345L129.144 66.9616C126.478 64.74 123.079 63.7148 119.133 63.7148V67.7148ZM126.59 70.04C128.38 71.519 129.232 73.3286 129.232 75.6172H133.232C133.232 72.1246 131.839 69.1881 129.137 66.9561L126.59 70.04ZM131.232 73.6172H125.783V77.6172H131.232V73.6172ZM127.783 75.6172C127.783 73.4693 126.829 71.6554 125.171 70.2525L122.587 73.3061C123.468 74.0517 123.783 74.7963 123.783 75.6172H127.783ZM125.182 70.2625C123.512 68.8271 121.444 68.168 119.133 68.168V72.168C120.65 72.168 121.746 72.583 122.575 73.2961L125.182 70.2625ZM119.133 68.168C116.892 68.168 114.862 68.6542 113.282 69.8739L115.726 73.0402C116.373 72.5411 117.428 72.168 119.133 72.168V68.168ZM113.282 69.8739C111.686 71.1056 110.834 72.8095 110.834 74.8262H114.834C114.834 74.0694 115.095 73.5272 115.726 73.0402L113.282 69.8739ZM110.834 74.8262C110.834 76.7637 111.656 78.4093 113.307 79.4685L115.467 76.1018C115.048 75.8329 114.834 75.5059 114.834 74.8262H110.834ZM113.307 79.4685C114.663 80.3386 116.834 81.032 119.544 81.6408L120.421 77.7381C117.74 77.136 116.181 76.5598 115.467 76.1018L113.307 79.4685ZM119.547 81.6415C122.171 82.2267 124.198 82.9051 125.68 83.6463L127.469 80.0686C125.592 79.13 123.223 78.3631 120.418 77.7374L119.547 81.6415ZM125.68 83.6463C127.143 84.3779 128.077 85.1904 128.635 86.02L131.955 83.7886C130.911 82.2354 129.365 81.0167 127.469 80.0686L125.68 83.6463ZM128.656 86.0512C129.2 86.8276 129.525 87.8432 129.525 89.2109H133.525C133.525 87.1803 133.031 85.3247 131.933 83.7574L128.656 86.0512ZM129.525 89.2109C129.525 91.4143 128.688 93.1013 126.918 94.4437L129.336 97.6305C132.097 95.5355 133.525 92.6717 133.525 89.2109H129.525ZM126.927 94.4371C125.093 95.8127 122.609 96.5859 119.309 96.5859V100.586C123.234 100.586 126.63 99.6599 129.327 97.6371L126.927 94.4371ZM119.309 96.5859C117.006 96.5859 115.054 96.1793 113.406 95.4213L111.735 99.0553C113.993 100.094 116.533 100.586 119.309 100.586V96.5859ZM113.406 95.4213C111.743 94.6563 110.502 93.6259 109.613 92.3467L106.328 94.6298C107.666 96.5538 109.491 98.0233 111.735 99.0553L113.406 95.4213ZM109.629 92.3697C108.748 91.064 108.33 89.7028 108.33 88.2441H104.33C104.33 90.5355 105.006 92.6704 106.313 94.6069L109.629 92.3697ZM106.33 90.2441H111.75V86.2441H106.33V90.2441ZM109.753 88.3515C109.879 90.7025 110.85 92.692 112.671 94.144L115.165 91.0161C114.291 90.3198 113.816 89.4186 113.747 88.1368L109.753 88.3515ZM112.696 94.1636C114.504 95.5577 116.769 96.1621 119.309 96.1621V92.1621C117.395 92.1621 116.067 91.7118 115.14 90.9965L112.696 94.1636ZM119.309 96.1621C121.607 96.1621 123.676 95.7047 125.34 94.5957L123.121 91.2675C122.324 91.7992 121.112 92.1621 119.309 92.1621V96.1621ZM125.346 94.5917C127.093 93.4181 128.105 91.7097 128.105 89.5918H124.105C124.105 90.2474 123.868 90.7654 123.115 91.2715L125.346 94.5917ZM141.252 94.3672L139.803 95.746L139.808 95.751L141.252 94.3672ZM138.996 73.625L137.199 72.7476L137.196 72.7535L138.996 73.625ZM144.035 67.8242L145.12 69.5046L145.124 69.5021L144.035 67.8242ZM160.676 69.7871L159.146 71.075L160.676 69.7871ZM164.104 83.7031V85.7031H166.104V83.7031H164.104ZM142.629 83.7031V81.7031H140.578L140.63 83.7531L142.629 83.7031ZM145.354 91.291L143.866 92.6281L143.873 92.636L143.88 92.6438L145.354 91.291ZM160.383 89.8848L161.612 88.3068L160.028 87.0733L158.8 88.6619L160.383 89.8848ZM163.693 92.4629L165.37 93.5537L166.372 92.0138L164.922 90.8849L163.693 92.4629ZM145.559 72.5703L147.017 73.9388L147.025 73.9298L145.559 72.5703ZM142.805 79.25L140.82 79.0069L140.545 81.25H142.805V79.25ZM158.684 79.25V81.25H160.684V79.25H158.684ZM158.684 78.8398H160.684V78.7832L160.68 78.7266L158.684 78.8398ZM156.457 72.4531L154.949 73.7674L154.958 73.777L156.457 72.4531ZM151.74 96.5859C147.926 96.5859 144.973 95.3596 142.696 92.9834L139.808 95.751C142.921 98.9998 146.96 100.586 151.74 100.586V96.5859ZM142.701 92.9884C140.431 90.6031 139.209 87.3562 139.209 83.0293H135.209C135.209 88.1555 136.683 92.4672 139.803 95.746L142.701 92.9884ZM139.209 83.0293V82.0332H135.209V83.0293H139.209ZM139.209 82.0332C139.209 79.1452 139.755 76.6477 140.796 74.4965L137.196 72.7535C135.855 75.5242 135.209 78.6321 135.209 82.0332H139.209ZM140.793 74.5024C141.858 72.3226 143.302 70.6779 145.12 69.5046L142.951 66.1438C140.472 67.7439 138.557 69.9665 137.199 72.7476L140.793 74.5024ZM145.124 69.5021C146.976 68.3004 148.944 67.7148 151.066 67.7148V63.7148C148.15 63.7148 145.43 64.5355 142.947 66.1463L145.124 69.5021ZM151.066 67.7148C154.703 67.7148 157.304 68.8869 159.146 71.075L162.206 68.4992C159.477 65.2577 155.672 63.7148 151.066 63.7148V67.7148ZM159.146 71.075C161.021 73.3028 162.104 76.6627 162.104 81.4473H166.104C166.104 76.1146 164.901 71.7011 162.206 68.4992L159.146 71.075ZM162.104 81.4473V83.7031H166.104V81.4473H162.104ZM164.104 81.7031H142.629V85.7031H164.104V81.7031ZM140.63 83.7531C140.717 87.2537 141.748 90.2718 143.866 92.6281L146.841 89.9539C145.483 88.443 144.697 86.4025 144.628 83.6531L140.63 83.7531ZM143.88 92.6438C146.033 94.9874 148.801 96.1621 152.033 96.1621V92.1621C149.874 92.1621 148.19 91.4228 146.827 89.9382L143.88 92.6438ZM152.033 96.1621C154.218 96.1621 156.209 95.7151 157.911 94.7141L155.882 91.2664C154.928 91.8278 153.676 92.1621 152.033 92.1621V96.1621ZM157.911 94.7141C159.471 93.7963 160.822 92.5867 161.965 91.1077L158.8 88.6619C157.951 89.7609 156.978 90.6216 155.882 91.2664L157.911 94.7141ZM159.154 91.4627L162.465 94.0408L164.922 90.8849L161.612 88.3068L159.154 91.4627ZM162.017 91.3721C159.768 94.8284 156.449 96.5859 151.74 96.5859V100.586C157.656 100.586 162.306 98.2614 165.37 93.5537L162.017 91.3721ZM151.066 68.168C148.323 68.168 145.955 69.2 144.092 71.2108L147.025 73.9298C148.131 72.7375 149.435 72.168 151.066 72.168V68.168ZM144.1 71.2018C142.242 73.1822 141.206 75.8534 140.82 79.0069L144.79 79.4931C145.107 76.9044 145.906 75.1225 147.017 73.9388L144.1 71.2018ZM142.805 81.25H158.684V77.25H142.805V81.25ZM160.684 79.25V78.8398H156.684V79.25H160.684ZM160.68 78.7266C160.508 75.6906 159.675 73.0758 157.956 71.1292L154.958 73.777C155.895 74.8383 156.547 76.4813 156.687 78.9531L160.68 78.7266ZM157.965 71.1389C156.208 69.1241 153.832 68.168 151.066 68.168V72.168C152.832 72.168 154.05 72.7353 154.949 73.7674L157.965 71.1389Z" fill="#3D2EE8"/>
<circle cx="135" cy="44" r="20" stroke="#61FF29" stroke-width="10"/>
<rect x="128" width="10" height="39.4773" transform="rotate(25.1145 128 0)" fill="#61FF29"/>
<circle cx="135.5" cy="44.5" r="7.5" fill="#AAAAAA"/>
</g>
<defs>
<filter id="filter0_i" x="0.603394" y="0" width="165.768" height="104.586" filterUnits="userSpaceOnUse" color-interpolation-filters="sRGB">
<feFlood flood-opacity="0" result="BackgroundImageFix"/>
<feBlend mode="normal" in="SourceGraphic" in2="BackgroundImageFix" result="shape"/>
<feColorMatrix in="SourceAlpha" type="matrix" values="0 0 0 0 0 0 0 0 0 0 0 0 0 0 0 0 0 0 127 0" result="hardAlpha"/>
<feOffset dy="4"/>
<feGaussianBlur stdDeviation="2"/>
<feComposite in2="hardAlpha" operator="arithmetic" k2="-1" k3="1"/>
<feColorMatrix type="matrix" values="0 0 0 0 0 0 0 0 0 0 0 0 0 0 0 0 0 0 0.25 0"/>
<feBlend mode="normal" in2="shape" result="effect1_innerShadow"/>
</filter>
</defs>
</svg>
